# xmcd
#
# Track frame offsets:
#	150
#	20446
#	47287
#	76648
#	101485
#	123066
#	143552
#	164187
#	182996
#	199744
#	214278
#	245245
#	261699
#	278031
#	301757
#
# Disc length: 4375 seconds
#
# Revision: 0
# Processed by: cddbd v1.5.2PL0 Copyright (c) Steve Scherf et al.
# Submitted via: audiograbber 1.83.01
#
DISCID=d311150f
DTITLE=Kenny Chesney - Live in No Shoes Nation CD2
DYEAR=2017
DGENRE=Country
TTITLE0=Somewhere with You (Live)
TTITLE1=I Go Back (Live)
TTITLE2=One Step Up (Live)
TTITLE3=American Kids (Live)
TTITLE4=You and Tequila (Live) (feat. Grace Potter)
TTITLE5=Young (Live)
TTITLE6=There Goes My Life (Live)
TTITLE7=Out Last Night (Live)
TTITLE8=Dust on the Bottle (Live)
TTITLE9=Coastal (Live)
TTITLE10=The Boys of Fall (Live)
TTITLE11=Noise (Live)
TTITLE12=Old Blue Chair (Live)
TTITLE13=Medley: The Joker - Three Little Birds (Live) (feat. Dave Matthews)
TTITLE14=Happy on the Hey Now (A Song for Kristi) (Live)
EXTD=
EXTT0=
EXTT1=
EXTT2=
EXTT3=
EXTT4=
EXTT5=
EXTT6=
EXTT7=
EXTT8=
EXTT9=
EXTT10=
EXTT11=
EXTT12=
EXTT13=
EXTT14=
PLAYORDER=
